# xmcd
# 
# Track frame offsets:
#     150
#     12562
#     21777
#     31812
#     40632
#     53587
#     66900
#     78895
#     88982
#     98330
#     106332
#     123525
#     135387
#     146285
#     156850
#     168532
# 
# Disc length: 2393
# 
# Revision: 14
# Processed by: cddbd v1.5.2PL0 Copyright (c) Steve Scherf et al.
# Submitted via: fre:ac v1.0.31
# 
DISCID=c2095710
DTITLE=Johnny Cash - Love
DYEAR=2000
DGENRE=Country
TTITLE0=I Walk the Line [mono]
TTITLE1=Oh, What a Dream
TTITLE2=All Over Again
TTITLE3=A Little at a Time
TTITLE4=My Old Faded Rose
TTITLE5=Happiness Is You
TTITLE6=Flesh and Blood
TTITLE7=I Tremble For You
TTITLE8=I Feel Better All Over
TTITLE9='Cause I Love You
TTITLE10=Ballad of Barbara
TTITLE11=Ring of Fire
TTITLE12=My Shoes Keep Walking Back To You
TTITLE13=While I've Got It on My Mind
TTITLE14=I Still Miss Someone
TTITLE15=The One Rose (That's Left In My Heart) [mono]
EXTD=YEAR: 2000
EXTT0=
EXTT1=
EXTT2=
EXTT3=
EXTT4=
EXTT5=
EXTT6=
EXTT7=
EXTT8=
EXTT9=
EXTT10=
EXTT11=
EXTT12=
EXTT13=
EXTT14=
EXTT15=
PLAYORDER=
